<svg id="Ebene_1" data-name="Ebene 1" xmlns="http://www.w3.org/2000/svg" viewBox="0 0 498 227.33"><title>Figure_1_2015_Square</title><rect x="114.11" y="110.37" width="82" height="84.5" style="fill:#fecd1a"/><path d="M340.27,195.15H222.56v-40.8l-34.33.22,34.33-33V70H340.27V195.15Z" style="fill:#edebd8"/><text transform="translate(54.85 220)" style="font-size:9px;fill:#1a171b;font-family:Trade Gothic Next LT Pro">Nuclear power </text><text transform="translate(79.29 209.26)" style="font-size:14.0625px;fill:#1a171b;font-family:Trade Gothic Next LT Pro;font-weight:700">2.6%</text><polygon points="111.17 107.97 111.17 165.91 79.56 165.87 79.52 194.87 7.44 194.87 7.44 5.54 196.11 5.54 196.11 107.97 111.17 107.97" style="fill:#767480"/><rect x="82.26" y="168.8" width="28.93" height="26.07" style="fill:#a16269"/><text transform="translate(21.32 42.46)" style="font-size:14.0625px;fill:#fff;font-family:Trade Gothic Next LT Pro;font-weight:700">78.3%</text><text transform="translate(20.17 25.91)" style="font-size:9px;fill:#fff;font-family:Trade Gothic Next LT Pro">F<tspan x="4.51" y="0">ossil fuels </tspan></text><text transform="translate(119.45 140.93)" style="font-size:14.0625px;fill:#1a171b;font-family:Trade Gothic Next LT Pro;font-weight:700">19.1%</text><text transform="translate(120.62 126.47)" style="font-size:9px;fill:#1a171b;font-family:Trade Gothic Next LT Pro">All renewables</text><rect x="227.04" y="134.91" width="107.9" height="55.6" style="fill:#b89a75"/><text transform="translate(235.35 164.83)" style="font-size:14.0625px;fill:#1a171b;font-family:Trade Gothic Next LT Pro;font-weight:700"><tspan style="letter-spacing:1px">9</tspan><tspan x="9.48" y="0">%</tspan></text><text transform="translate(235.41 149.04)" style="font-size:9px;fill:#1a171b;font-family:Trade Gothic Next LT Pro">Traditional biomass</text><rect x="227.27" y="74.16" width="107.45" height="58.22" style="fill:#fed055"/><text transform="translate(235.05 104.07)" style="font-size:14.0625px;fill:#1a171b;font-family:Trade Gothic Next LT Pro;font-weight:700">1<tspan x="7.23" y="0">0</tspan><tspan x="15.58" y="0">.</tspan><tspan x="19.53" y="0">1</tspan><tspan x="27.89" y="0">%</tspan></text><text transform="translate(235.1 87.79)" style="font-size:9px;fill:#1a171b;font-family:Trade Gothic Next LT Pro">Modern renewables</text><path d="M487.22,133.34H356.84V114.83l-28.1.25,28.1-26.3V57.68H487.22v75.65Z" style="fill:#edebd8"/><text transform="translate(404.17 160.01)" style="font-size:9px;fill:#1a171b;font-family:Trade Gothic Next LT Pro">Wind/solar/<tspan x="8.81" y="9">biomass/</tspan><tspan x="-0.46" y="18">geothermal </tspan><tspan x="19.83" y="27">power</tspan></text><text transform="translate(456.47 160.1)" style="font-size:9px;fill:#1a171b;font-family:Trade Gothic Next LT Pro">Biofuels</text><rect x="420.47" y="62.46" width="61.88" height="49.82" style="fill:#7ab6bc"/><text transform="translate(424.78 92.95)" style="font-size:14.0625px;fill:#1a171b;font-family:Trade Gothic Next LT Pro;font-weight:700">3.9%</text><text transform="translate(424.84 75.99)" style="font-size:9px;fill:#1a171b;font-family:Trade Gothic Next LT Pro">Hydropower</text><rect x="362.49" y="62.49" width="55.14" height="65.23" style="fill:#fed055"/><text transform="translate(367.68 111.05)" style="font-size:14.0625px;fill:#1a171b;font-family:Trade Gothic Next LT Pro;font-weight:700">4<tspan x="8.07" y="0" style="letter-spacing:-1px">.</tspan><tspan x="10.9" y="0">1%</tspan></text><text transform="translate(367.73 75.96)" style="font-size:9px;fill:#1a171b;font-family:Trade Gothic Next LT Pro">Biomass/<tspan x="0" y="9">geothermal/</tspan><tspan x="0" y="18">solar heat</tspan></text><text transform="translate(419.04 147.91)" style="font-size:14.0625px;fill:#1a171b;font-family:Trade Gothic Next LT Pro;font-weight:700"><tspan style="letter-spacing:-1px">1</tspan><tspan x="6.95" y="0">.</tspan><tspan x="10.34" y="0">3%</tspan></text><rect x="420.47" y="115.14" width="32.68" height="12.6" style="fill:#b5b975"/><rect x="455.56" y="115.14" width="26.58" height="12.6" style="fill:#df9151"/><text transform="translate(455.19 148)" style="font-size:14.0625px;fill:#1a171b;font-family:Trade Gothic Next LT Pro;font-weight:700">0<tspan x="7.23" y="0">.</tspan><tspan x="10.62" y="0" style="letter-spacing:1px">8</tspan><tspan x="19.81" y="0">%</tspan></text></svg>